<?xml version="1.0" encoding="UTF-8" standalone="no"?>
<svg
   xmlns:dc="http://purl.org/dc/elements/1.1/"
   xmlns:cc="http://creativecommons.org/ns#"
   xmlns:rdf="http://www.w3.org/1999/02/22-rdf-syntax-ns#"
   xmlns:svg="http://www.w3.org/2000/svg"
   xmlns="http://www.w3.org/2000/svg"
   id="svg980"
   version="1.1"
   viewBox="0 0 500 130.00001"
   height="130"
   width="500">
  <defs
     id="defs974" />
  <metadata
     id="metadata977">
    <rdf:RDF>
      <cc:Work
         rdf:about="">
        <dc:format>image/svg+xml</dc:format>
        <dc:type
           rdf:resource="http://purl.org/dc/dcmitype/StillImage" />
        <dc:title></dc:title>
      </cc:Work>
    </rdf:RDF>
  </metadata>
  <g
     transform="translate(0,-992.51964)"
     id="layer1">
    <g
       id="text832"
       style="font-style:normal;font-variant:normal;font-weight:normal;font-stretch:normal;font-size:228.85424805px;line-height:1.25;font-family:Madame;-inkscape-font-specification:'Madame, Normal';font-variant-ligatures:normal;font-variant-caps:normal;font-variant-numeric:normal;font-feature-settings:normal;text-align:start;letter-spacing:0px;word-spacing:0px;writing-mode:lr-tb;text-anchor:start;fill:#ffffff;fill-opacity:1;stroke:none;stroke-width:3.41902542"
       transform="matrix(0.63474482,-0.0154505,0.0154505,0.63474482,-562.55781,801.9259)"
       aria-label="podłącz się!">
      <path
         id="path931"
         style="fill:#ffffff;fill-opacity:1;stroke-width:3.41902542"
         d="m 986.13793,438.00456 q 0.91542,-1.14427 2.05969,-1.14427 1.37312,0 2.05969,1.37312 0.91541,1.37313 -0.22886,2.97511 -8.0099,13.04469 -18.07948,20.82573 -9.84074,7.55219 -19.68147,7.55219 -1.14427,0 -2.05969,0 -0.91541,-0.22885 -2.05969,-0.4577 -6.63677,6.86562 -13.96011,11.21385 -7.32333,4.34824 -14.18896,4.34824 -4.11938,0 -7.55219,-2.05969 -3.43281,-1.83084 -5.95021,-4.80594 -3.43281,8.23875 -6.40792,16.0198 -2.9751,7.78104 -5.26365,13.9601 -2.28854,6.40792 -3.43281,10.5273 -1.37313,4.11938 -1.37313,5.26365 0,2.74625 -2.51739,2.74625 -1.83084,0 -4.11938,-1.37313 -2.28854,-1.14427 -4.34823,-2.9751 -2.28854,-1.83084 -3.66167,-4.11938 -1.60198,-2.05969 -1.60198,-4.11938 0,-3.20395 3.20396,-12.58698 2.97511,-9.15417 7.78105,-21.05459 4.80594,-12.12927 10.75615,-25.17397 5.72135,-13.27354 11.21385,-24.25855 5.49251,-10.985 9.84074,-18.07948 4.57708,-7.09448 6.63677,-7.09448 2.74625,0 5.72136,1.60198 2.9751,1.60197 5.03479,3.89052 2.05969,2.28854 2.74625,4.57708 0.68656,2.28854 -0.68656,3.66167 -2.97511,3.20396 -7.55219,11.44271 4.11937,-4.80594 8.23875,-9.38302 4.34823,-4.57709 8.0099,-8.0099 3.89052,-3.43281 7.09448,-5.4925 3.43282,-2.05969 5.72136,-2.05969 3.20396,0 6.17906,2.05969 3.20396,1.83083 5.4925,4.57708 2.5174,2.5174 3.89053,5.4925 1.37312,2.97511 1.37312,5.0348 0,5.95021 -4.57708,15.79094 -4.57709,9.61188 -11.90042,19.22376 h 0.68656 q 7.09448,0 13.73125,-5.72136 6.63678,-5.95021 13.73126,-14.18896 z m -71.63138,36.15897 q 3.43281,0 7.55219,-2.5174 4.34823,-2.74625 8.92532,-7.32333 -0.68657,-1.83084 -0.68657,-3.43282 0,-3.66166 2.5174,-5.95021 2.5174,-2.51739 5.95021,-2.51739 1.83083,0 2.5174,0.22885 3.89052,-4.80594 7.09448,-9.61188 3.43281,-5.03479 5.95021,-9.38302 2.5174,-4.57709 3.89052,-8.23876 1.60198,-3.66166 1.60198,-5.95021 0,-2.51739 -0.91542,-2.74625 -0.91541,-0.22885 -1.83083,-0.22885 -2.28854,0 -8.46761,5.4925 -5.95021,5.4925 -13.27354,13.73126 -7.09449,8.23875 -14.18897,18.07948 -7.09448,9.61188 -11.67156,18.07949 1.83083,2.28854 5.03479,2.28854 z" />
      <path
         id="path933"
         style="fill:#ffffff;fill-opacity:1;stroke-width:3.41902542"
         d="m 1054.5649,438.00456 q 0.9154,-1.14427 2.0597,-1.14427 1.3731,0 2.0597,1.37312 0.9154,1.37313 -0.2289,2.97511 -7.781,12.35813 -17.3929,20.13917 -9.383,7.55219 -18.766,8.23875 -5.2637,5.72136 -10.7562,9.38303 -5.4925,3.43281 -10.7561,3.43281 -3.20398,0 -7.09451,-2.05969 -3.66166,-2.05968 -7.09448,-5.26364 -3.20396,-3.43282 -5.4925,-7.78105 -2.28854,-4.34823 -2.28854,-9.15417 0,-4.34823 2.28854,-9.84073 2.05969,-5.72136 5.26365,-10.985 3.20396,-5.26365 6.86563,-9.15417 3.66166,-4.11938 6.63677,-5.26365 3.20394,-6.40792 8.92534,-11.67157 5.7213,-5.4925 12.1293,-5.4925 3.4328,0 7.0944,2.28854 3.6617,2.28854 6.6368,5.95021 2.9751,3.43282 4.8059,8.0099 2.0597,4.57709 2.0597,9.38303 0,4.57708 -2.7462,11.67156 -2.7463,7.09448 -7.3234,14.18897 5.9503,-1.60198 11.4428,-6.86563 5.7213,-5.4925 11.6715,-12.35813 z m -56.29812,31.35303 q 2.74622,0 7.78102,-5.03479 -0.6865,-1.83084 -0.6865,-3.43282 0,-4.57708 2.9751,-6.40792 2.9751,-2.05968 6.8656,-2.05968 5.0348,-7.78105 8.6965,-16.93522 3.6616,-9.38302 3.6616,-17.62178 0,-1.37312 -0.6865,-2.28854 -0.6866,-1.14427 -2.2886,-1.14427 -2.0597,0 -4.1194,1.37313 -2.0596,1.14427 -3.8905,3.20396 -1.8308,2.05968 -3.4328,4.57708 -1.3731,2.28854 -2.2885,4.34823 2.7462,3.20396 3.4328,5.95021 0.9154,2.74625 -1.8309,2.74625 -2.5174,0 -5.7213,2.5174 -2.9751,2.5174 -5.7214,6.63677 -2.74622,4.11938 -4.80591,9.38303 -1.83083,5.03479 -1.83083,10.06958 0,1.83084 0.68656,2.97511 0.91542,1.14427 3.20396,1.14427 z" />
      <path
         id="path935"
         style="fill:#ffffff;fill-opacity:1;stroke-width:3.41902542"
         d="m 1134.2062,361.33839 q 2.7462,0 5.4925,1.60198 2.9751,1.60197 5.0348,3.89052 2.0596,2.28854 2.7462,4.57708 0.9154,2.28854 -0.4577,3.66167 -2.9751,2.97511 -7.0945,10.5273 -4.1194,7.32333 -8.6964,16.93521 -4.3483,9.38302 -8.6965,19.68147 -4.3482,10.06958 -8.0099,18.76604 -3.4328,8.69647 -5.7214,14.64668 -2.0597,5.95021 -2.0597,6.63677 0,1.83083 1.3732,1.83083 2.7462,0 6.8656,-3.66167 4.3482,-3.66166 8.6965,-8.23875 4.3482,-4.57708 7.5522,-8.69646 3.4328,-4.34823 4.3482,-5.4925 0.9154,-1.14427 2.2885,-1.14427 1.3732,0 2.0597,1.37312 0.6866,1.37313 -0.4577,2.97511 -0.2288,0.45771 -2.5174,3.89052 -2.2885,3.20396 -5.7213,7.78104 -3.204,4.34824 -7.5522,9.61188 -4.1194,5.0348 -8.6965,9.61188 -4.3482,4.34823 -8.6965,7.32334 -4.3482,2.74625 -7.781,2.74625 -1.3731,0 -3.8905,-1.14427 -2.2886,-1.14427 -4.5771,-2.74625 -2.0597,-1.83084 -3.6617,-4.11938 -1.602,-2.28854 -1.602,-4.57709 0,-2.51739 1.8309,-8.23875 1.8308,-5.95021 4.8059,-13.96011 -0.4577,1.14427 -1.3731,2.05969 -0.6866,0.91542 -1.602,2.05969 -4.1194,5.72136 -8.9253,11.44271 -4.5771,5.4925 -9.383,9.84073 -4.806,4.11938 -9.3831,6.86563 -4.3482,2.5174 -8.0099,2.5174 -2.2885,0 -4.3482,-1.60198 -2.0597,-1.60198 -3.6617,-3.89052 -1.6019,-2.5174 -2.5173,-5.26365 -1.1443,-2.97511 -1.1443,-5.4925 0,-3.43282 2.5174,-9.15417 2.5174,-5.72136 6.8656,-12.35813 4.1194,-6.86563 9.1542,-13.73126 5.2636,-6.86562 10.5273,-12.35813 5.4925,-5.72135 10.5273,-9.15417 5.0348,-3.66166 8.6964,-3.66166 4.3483,0 8.4676,2.28854 4.1194,2.05969 7.7811,5.26365 4.3482,-9.84074 8.6964,-19.22376 4.5771,-9.38303 8.4676,-16.47751 3.8906,-7.32333 6.8657,-11.67156 2.9751,-4.34823 4.5771,-4.34823 z m -69.114,102.75555 q 1.1442,0 5.4925,-4.11937 4.3482,-4.11938 9.6119,-9.61188 5.4925,-5.72136 10.7561,-11.90042 5.2637,-6.17907 8.0099,-10.29844 1.3731,-2.5174 2.2885,-5.26365 0,-2.5174 -1.1442,-3.89052 -1.1443,-1.60198 -3.6617,-1.60198 -1.1443,0 -4.1194,2.51739 -2.9751,2.5174 -6.6367,6.40792 -3.6617,3.89052 -7.5522,8.92532 -3.8906,4.80594 -7.3234,9.84073 -3.2039,5.03479 -5.2636,9.61188 -2.0597,4.34823 -2.0597,7.32333 0,2.05969 1.602,2.05969 z" />
      <path
         id="path937"
         style="fill:#ffffff;fill-opacity:1;stroke-width:3.41902542"
         d="m 1186.8422,394.52225 q 0.2289,0 0.2289,0 0.2288,-0.22885 0.4577,-0.22885 1.3731,0 2.7462,0.91541 1.3731,0.91542 2.0597,2.05969 0.9154,1.14427 1.1443,2.5174 0.2288,1.14427 -0.9154,1.60198 -2.7463,1.14427 -10.2985,5.26365 -7.5522,4.11937 -16.4775,8.92531 -3.6616,8.46761 -7.0945,16.70636 -3.4328,8.0099 -5.9502,14.64667 -2.5174,6.63678 -4.1194,10.98501 -1.6019,4.11937 -1.6019,4.57708 0,1.83084 1.3731,1.83084 2.7462,0 7.0945,-3.66167 4.3482,-3.66167 8.4676,-8.23875 4.3482,-4.80594 7.781,-8.92532 3.4328,-4.34823 4.3483,-5.4925 0.9154,-1.14427 2.2885,-1.14427 1.3731,0 2.0597,1.37312 0.6866,1.37313 -0.4577,2.97511 -0.2289,0.45771 -2.5174,3.89052 -2.2886,3.20396 -5.7214,7.78104 -3.4328,4.57709 -7.781,9.84074 -4.1194,5.03479 -8.6965,9.61188 -4.3482,4.34823 -8.6964,7.32333 -4.3483,2.74625 -7.7811,2.74625 -1.3731,0 -3.6617,-1.14427 -2.5173,-1.14427 -4.577,-2.74625 -2.2886,-1.83083 -3.8906,-4.11938 -1.6019,-2.28854 -1.6019,-4.57708 0,-1.83083 1.1442,-5.4925 0.9155,-3.66167 2.7463,-8.92532 1.8308,-5.26365 4.3482,-11.44271 2.5174,-6.40792 5.2637,-13.27355 -1.8309,0.91542 -3.204,1.60198 -1.602,0.68657 -2.5174,1.14427 -1.3731,0.45771 -2.0597,0.45771 -2.5174,0 -4.5771,-1.60198 -2.2885,-1.83083 -3.8905,-4.11937 -1.602,-2.28855 -2.0597,-4.11938 -0.6865,-2.05969 0.4577,-2.5174 0.2289,-0.22885 0.9154,-0.22885 4.5771,0 8.6965,-1.37313 4.1194,-1.60198 8.2388,-3.43281 1.8308,-0.68656 3.6616,-1.37313 1.8309,-0.91541 3.6617,-1.83083 4.3482,-9.84073 8.6965,-19.22376 4.577,-9.38302 8.4676,-16.4775 3.8905,-7.32334 6.8656,-11.67157 3.204,-4.34823 4.5771,-4.34823 2.7462,0 5.4925,1.60198 2.9751,1.60198 5.0348,3.89052 2.0597,2.28854 2.7462,4.57709 0.9154,2.28854 -0.4577,3.66166 -2.7462,2.97511 -6.6368,10.06959 -3.8905,6.86563 -8.2387,15.79094 5.0348,-2.28854 8.6965,-3.89052 3.8905,-1.83083 5.7213,-2.74625 z" />
      <path
         id="path939"
         style="fill:#ffffff;fill-opacity:1;stroke-width:3.41902542"
         d="m 1255.2692,438.00456 q 0.9154,-1.14427 2.2885,-1.14427 1.3732,0 2.0597,1.37312 0.6866,1.37313 -0.4577,2.97511 -4.3482,5.95021 -9.6119,13.27354 -5.0347,7.09449 -10.7561,13.27355 -5.4925,6.17907 -10.985,10.5273 -5.4925,4.11937 -10.5273,4.11937 -1.1443,0 -3.4328,-1.14427 -2.0597,-1.14427 -4.3482,-2.9751 -2.0597,-1.83084 -3.6617,-4.11938 -1.602,-2.28854 -1.602,-4.34823 0,-3.20396 1.8308,-8.0099 1.8309,-4.80594 3.6617,-9.84073 -4.1194,5.72135 -8.9253,11.21386 -4.5771,5.4925 -9.383,9.84073 -4.5771,4.11938 -9.1542,6.86563 -4.5771,2.51739 -8.2388,2.51739 -2.2885,0 -4.3482,-1.60198 -2.0597,-1.60198 -3.6617,-3.89052 -1.6019,-2.5174 -2.5174,-5.26365 -1.1442,-2.9751 -1.1442,-5.4925 0,-3.43281 2.5174,-9.15417 2.5174,-5.72136 6.8656,-12.35813 4.1194,-6.86563 9.1542,-13.73125 5.2636,-6.86563 10.5273,-12.35813 5.4925,-5.72136 10.5273,-9.15417 5.0348,-3.66167 8.6964,-3.66167 4.806,0 9.383,2.5174 4.5771,2.51739 8.2388,6.17906 3.6617,3.66167 6.1791,7.78105 2.5174,3.89052 3.2039,6.86562 0,0.45771 0.2289,0.68657 v 0.68656 q 0,1.37312 -1.8309,5.95021 -1.8308,4.34823 -4.1193,9.61188 -2.0597,5.03479 -3.8906,9.84073 -1.8308,4.80594 -1.8308,6.86563 0,1.60198 1.3731,1.60198 2.7463,0 5.7214,-2.05969 2.9751,-2.28854 6.4079,-5.72136 3.4328,-3.66167 7.3233,-8.4676 3.8906,-4.80594 8.2388,-10.06959 z m -68.8851,26.54709 q 0.9154,0 3.8905,-2.74625 3.204,-2.74625 7.0945,-6.86563 4.1194,-4.34823 8.4676,-9.15417 4.3482,-5.03479 8.0099,-9.61188 3.8905,-4.57708 6.179,-8.00989 2.5174,-3.66167 2.5174,-4.80594 0,-1.83084 -0.9154,-3.66167 -0.9154,-1.83084 -3.4328,-2.05969 -1.8308,0 -5.0348,2.74625 -3.2039,2.5174 -7.0945,6.63677 -3.6616,4.11938 -7.5522,9.38303 -3.6616,5.03479 -6.8656,10.06959 -2.9751,4.80593 -5.0348,9.15417 -1.8308,4.34823 -1.8308,6.63677 0,2.28854 1.602,2.28854 z m 37.7609,16.24865 q -2.7462,4.11938 -4.3482,7.55219 -1.602,3.66167 -1.602,6.63678 0,4.57708 4.1194,4.57708 3.2039,0 7.781,-2.5174 1.1443,-0.91541 2.0597,-0.91541 1.602,0 1.602,2.28854 0,2.28854 -1.602,4.34823 -1.602,2.05969 -4.3482,3.66167 -2.5174,1.60198 -5.7214,2.5174 -2.9751,0.91541 -5.9502,0.91541 -4.1194,0 -7.0945,-2.05969 -2.7462,-2.05968 -2.7462,-7.09448 0,-4.80594 2.9751,-10.29844 3.204,-5.4925 7.781,-10.06959 1.1443,-1.83083 2.7463,-2.74625 1.602,-0.91541 2.9751,-0.91541 1.602,0 2.0597,1.14427 0.6865,1.14427 -0.6866,2.9751 z" />
      <path
         id="path941"
         style="fill:#ffffff;fill-opacity:1;stroke-width:3.41902542"
         d="m 1269.229,482.40228 q -1.8308,0 -5.4925,-1.14427 -3.4328,-1.37312 -7.0945,-3.89052 -3.6616,-2.5174 -6.179,-6.40792 -2.7463,-3.89052 -2.7463,-8.92532 0,-6.86562 4.1194,-16.4775 4.1194,-9.84073 10.0696,-18.5372 5.9502,-8.92531 12.8158,-15.10438 6.8657,-6.17906 12.3582,-6.17906 4.3482,0 8.2387,1.60198 3.8905,1.60198 6.6368,3.89052 2.9751,2.28854 4.5771,5.0348 1.8308,2.51739 1.8308,4.34823 0,2.9751 -1.602,6.63677 -1.602,3.66167 -3.8905,6.86563 -2.0597,3.20396 -4.3482,5.4925 -2.0597,2.05969 -3.4328,2.05969 -1.8309,0 -3.4329,-0.91542 -1.3731,-1.14427 -2.2885,-2.28854 -0.9154,-1.14427 -0.9154,-2.05969 0.2288,-1.14427 1.602,-1.14427 1.3731,0 3.6616,-2.74625 2.5174,-2.74625 4.1194,-6.17907 1.602,-3.43281 1.8308,-6.17906 0.4578,-2.74625 -2.2885,-2.74625 -2.9751,0 -8.0099,4.57708 -4.8059,4.34823 -9.6119,11.44271 -4.5771,6.86563 -8.0099,15.56209 -3.4328,8.69646 -3.4328,17.16407 0,4.57709 4.3482,4.57709 5.4925,0 11.2139,-2.97511 5.9502,-3.20396 11.6716,-8.0099 5.9502,-4.80594 11.2138,-10.52729 5.4925,-5.95021 9.8408,-11.21386 0.9154,-1.14427 2.2885,-1.14427 1.3731,0 2.0597,1.37312 0.6866,1.37313 -0.4577,2.97511 -4.3482,5.95021 -10.0696,13.27354 -5.4925,7.09449 -12.1293,13.27355 -6.4079,6.17907 -13.9601,10.5273 -7.3233,4.11937 -15.1044,4.11937 z" />
      <path
         id="path943"
         style="fill:#ffffff;fill-opacity:1;stroke-width:3.41902542"
         d="m 1394.1834,438.00456 q 0.9154,-1.14427 2.2885,-1.14427 1.3731,0 2.0597,1.37312 0.6866,1.37313 -0.4577,2.97511 -7.3233,10.985 -14.8755,19.45261 -7.3234,8.23875 -14.6467,14.64667 -0.9154,5.72136 -5.4925,13.96011 -4.3482,8.46761 -11.4427,16.0198 -7.0945,7.78104 -16.4775,13.27354 -9.3831,5.49251 -20.5969,5.49251 -3.8905,0 -6.6368,-1.60198 -2.9751,-1.37313 -4.8059,-3.43282 -1.8309,-2.05969 -2.7463,-4.11937 -0.9154,-2.05969 -0.9154,-3.20396 0,-3.43282 4.1194,-6.86563 4.1194,-3.43281 11.4427,-7.55219 7.3233,-4.11938 16.9352,-9.38303 9.6119,-5.26364 20.5969,-12.35812 0.6866,-1.83084 0.6866,-2.74626 0,-4.57708 -3.204,-6.86562 -2.9751,-2.28855 -5.4925,-2.28855 -2.5174,0 -4.8059,0.68657 -2.0597,0.68656 -3.6617,1.60198 -1.8308,0.91541 -3.204,2.28854 -0.9154,0 -2.0597,-0.91542 -1.1442,-1.14427 -2.2885,-2.51739 -1.1443,-1.37313 -2.0597,-2.74626 -0.6866,-1.60198 -0.6866,-2.28854 0,-0.45771 2.7463,-2.9751 2.9751,-2.5174 7.0945,-6.17907 4.3482,-3.66167 8.9253,-7.78104 4.8059,-4.11938 8.6965,-7.78105 3.8905,-3.66166 6.179,-6.40792 2.2886,-2.9751 1.3731,-3.89052 -1.6019,-1.37312 -4.3482,-1.83083 -2.7462,-0.68656 -5.9502,-0.68656 -2.9751,0 -6.1791,0.22885 -2.9751,0.22885 -5.4925,0.68656 -2.7462,0.45771 -5.4925,1.14427 -2.2885,2.74625 -4.3482,5.72136 -1.8308,2.5174 -4.1194,5.4925 -2.2885,2.97511 -4.3482,5.72136 -0.6866,1.14427 -2.0597,1.14427 -1.3731,0 -2.0597,-1.37313 -0.9154,-1.37312 0.2289,-2.9751 3.8905,-5.26365 7.0945,-10.29844 2.7462,-4.11938 4.8059,-8.23876 2.2885,-4.11937 2.2885,-6.63677 0,-1.83083 2.0597,-2.9751 2.2886,-1.37313 5.4925,-2.28855 3.4328,-0.91541 6.8657,-1.37312 3.6616,-0.45771 6.4079,-0.45771 6.6367,0 11.9004,1.37313 5.2636,1.14427 8.9253,2.9751 1.3731,0.68656 2.2886,2.28854 0.9154,1.37313 1.3731,3.20396 0.6865,1.60198 0.6865,3.20396 0,1.60198 -0.4577,2.28854 -2.7462,4.80594 -8.9253,11.21386 -5.9502,6.17907 -12.1293,11.90042 -7.3233,6.63678 -15.562,13.5024 1.3731,-0.68656 2.9751,-1.37312 1.6019,-0.45771 3.4328,-0.91542 1.8308,-0.45771 4.1194,-0.45771 5.2636,0 10.0695,2.74625 4.806,2.5174 7.0945,7.55219 7.3234,-5.72135 14.189,-12.35813 6.8656,-6.86562 12.587,-14.87552 z m -85.8204,75.5219 q 5.2637,0 12.587,-4.57708 7.3233,-4.57709 14.189,-10.98501 -6.4079,3.20396 -11.6716,5.0348 -5.0348,2.05968 -8.6965,3.43281 -3.8905,1.60198 -5.9502,2.74625 -2.0597,1.37313 -2.0597,2.9751 0,0.45771 0.4578,0.91542 0.2288,0.45771 1.1442,0.45771 z" />
      <path
         id="path945"
         style="fill:#ffffff;fill-opacity:1;stroke-width:3.41902542"
         d="m 1491.217,438.00456 q 0.9154,-1.14427 2.0597,-1.14427 1.3731,0 2.0597,1.37312 0.9154,1.37313 -0.2289,2.97511 -8.9253,14.64667 -20.1391,22.19886 -1.1443,4.34823 -4.3483,8.23875 -3.2039,3.66167 -7.3233,6.63678 -4.1194,2.74625 -8.4676,4.34823 -4.3482,1.60198 -8.2388,1.60198 -2.2885,0 -5.2636,-1.37313 -2.7463,-1.14427 -5.0348,-3.20396 -2.5174,-2.05969 -4.1194,-4.57708 -1.6019,-2.5174 -1.6019,-5.0348 0,-2.05968 1.1442,-2.9751 1.1443,-0.91542 2.2886,-0.91542 0.9154,0 1.6019,0.45771 0.4578,0.22885 0.9155,0.68656 0.4577,0.45771 1.1442,0.91542 0.4577,0.45771 1.602,0.45771 0.9154,0 4.806,-0.45771 3.8905,-0.45771 7.781,-2.74625 -1.8308,-1.83084 -1.8308,-4.57709 0,-2.74625 1.8308,-4.57708 2.0597,-2.05969 4.8059,-2.05969 0.4577,0 0.6866,0.22885 -0.2289,-3.89052 -1.3731,-10.52729 -0.9154,-6.63677 -2.0597,-15.56209 -2.9751,3.20396 -5.9502,7.32334 l -4.1194,5.4925 q -0.9154,1.14427 -2.0597,1.14427 -1.3731,0 -2.0597,-1.37313 -0.9154,-1.37312 0.2289,-2.9751 l 3.6616,-4.80594 q 2.5174,-3.89052 4.5771,-7.78105 1.8309,-3.43281 3.204,-7.32333 1.3731,-4.11938 1.3731,-7.55219 v -3.66167 q 0,-5.26365 3.6617,-8.92531 3.6616,-3.66167 6.8656,-3.66167 2.0597,0 3.8905,1.14427 2.0597,0.91542 3.4328,2.28854 1.3732,1.37313 1.8309,2.97511 0.4577,1.37312 -0.6866,2.51739 -1.8308,2.05969 -4.1194,4.57709 -2.2885,2.28854 -2.2885,7.32333 0,5.0348 1.1443,10.06959 1.3731,5.03479 2.9751,10.06959 1.602,4.80594 3.2039,9.61188 1.602,4.57708 2.2886,9.15417 4.1194,-2.74626 8.0099,-6.86563 4.1193,-4.34823 8.2387,-9.15417 z" />
      <path
         id="path947"
         style="fill:#ffffff;fill-opacity:1;stroke-width:3.41902542"
         d="m 1531.7242,438.00456 q 1.1442,-1.14427 2.0596,-1.14427 1.3732,0 2.0597,1.37312 0.9154,1.37313 -0.2288,2.97511 -0.2289,0.45771 -2.5174,3.89052 -2.2886,3.20396 -5.7214,7.78104 -3.4328,4.57709 -7.781,9.84074 -4.1194,5.03479 -8.6965,9.61188 -4.3482,4.34823 -8.6964,7.32333 -4.3483,2.74625 -8.0099,2.74625 -1.3732,0 -3.6617,-0.91541 -2.2886,-1.14428 -4.3482,-2.97511 -2.2886,-1.83083 -3.8906,-4.11938 -1.6019,-2.28854 -1.6019,-4.57708 0,-2.5174 1.8308,-8.23875 1.602,-5.72136 4.3482,-12.81584 2.5174,-7.09448 5.4925,-14.64667 3.204,-7.78105 5.9502,-13.96011 2.9751,-6.40792 5.2637,-10.29844 2.2885,-4.11938 2.9751,-4.11938 2.7462,0 5.7213,1.60198 2.9751,1.60198 5.0348,3.89052 2.0597,2.05969 2.7463,4.57709 0.9154,2.28854 -0.4577,3.66166 -1.3731,1.37313 -4.1194,7.55219 -2.7462,6.17907 -5.7214,13.73126 -2.9751,7.32334 -5.2636,13.73125 -2.0597,6.40792 -2.0597,8.23876 0,1.60198 1.3731,1.60198 2.7463,0 7.0945,-3.66167 4.3482,-3.66167 8.4676,-8.23875 4.3483,-4.80594 7.7811,-8.92532 3.6616,-4.34823 4.5771,-5.4925 z m -2.5174,-76.20847 q 2.5174,0 5.7213,1.37313 3.204,1.14427 5.4925,3.20396 2.5174,1.83083 3.6617,3.89052 1.1443,2.05969 -0.4577,3.66167 -4.1194,4.11938 -7.5522,8.69646 -3.4328,4.34823 -6.1791,8.23875 -2.7462,3.66167 -4.8059,6.17907 -1.8309,2.28854 -2.9751,2.28854 -2.5174,0 -5.2637,-2.74625 -2.7462,-2.74625 -2.7462,-5.26365 0,-2.51739 1.3731,-7.32333 1.602,-5.0348 3.8905,-9.84074 2.2886,-5.03479 4.806,-8.69646 2.7462,-3.66167 5.0348,-3.66167 z" />
      <path
         id="path949"
         style="fill:#ffffff;fill-opacity:1;stroke-width:3.41902542"
         d="m 1592.1415,438.00456 q 0.9154,-1.14427 2.0597,-1.14427 1.3731,0 2.0597,1.37312 0.6866,1.37313 -0.4577,2.97511 -4.3482,5.95021 -10.0696,13.27354 -5.4925,7.09449 -12.1293,13.27355 -6.4079,6.17907 -13.7312,10.5273 -7.3234,4.11937 -15.3333,4.11937 -1.6019,0 -5.2636,-1.14427 -3.6617,-1.37312 -7.3233,-3.89052 -3.4329,-2.5174 -6.1791,-6.40792 -2.7463,-3.89052 -2.7463,-8.92532 0,-7.32333 4.806,-16.93521 4.8059,-9.84073 11.4427,-18.53719 6.6368,-8.69647 13.2735,-14.64668 6.8657,-6.17906 10.7562,-6.17906 3.6617,0 7.3233,2.28854 3.6617,2.05969 6.6368,5.0348 2.9751,2.9751 4.8059,6.17906 2.0597,3.20396 2.0597,5.26365 0,4.11937 -3.6616,9.61188 -3.6617,5.4925 -9.1542,10.52729 -5.2637,5.0348 -11.2139,8.69646 -5.7213,3.43282 -10.0696,3.43282 -2.5174,0 -4.3482,-1.14427 -2.0597,5.72135 -2.0597,10.52729 0,4.57709 4.5771,4.57709 5.2637,0 10.985,-2.97511 5.9502,-3.20396 11.6716,-8.0099 5.9502,-4.80594 11.4427,-10.52729 5.4925,-5.95021 9.8407,-11.21386 z m -19.4526,-16.47751 q -2.9751,0 -6.4079,2.5174 -3.204,2.28854 -6.6368,6.17906 -3.2039,3.89053 -6.179,8.92532 -2.9752,4.80594 -5.2637,9.84073 3.8905,-1.37312 8.4676,-4.57708 4.5771,-3.20396 8.6965,-6.86563 4.1193,-3.89052 6.8656,-7.55219 2.7463,-3.89052 2.7463,-6.63677 0,-1.83084 -2.2886,-1.83084 z m -16.4775,59.27325 q -2.7462,4.11938 -4.3482,7.55219 -1.602,3.66167 -1.602,6.63678 0,4.57708 4.1194,4.57708 3.2039,0 7.781,-2.5174 1.1443,-0.91541 2.0597,-0.91541 1.602,0 1.602,2.28854 0,2.28854 -1.602,4.34823 -1.602,2.05969 -4.3482,3.66167 -2.5174,1.60198 -5.7214,2.5174 -2.9751,0.91541 -5.9502,0.91541 -4.1194,0 -7.0945,-2.05969 -2.7462,-2.05968 -2.7462,-7.09448 0,-4.80594 2.9751,-10.29844 3.2039,-5.4925 7.781,-10.06959 1.1443,-1.83083 2.7463,-2.74625 1.602,-0.91541 2.9751,-0.91541 1.602,0 2.0597,1.14427 0.6865,1.14427 -0.6866,2.9751 z" />
      <path
         id="path951"
         style="fill:#ffffff;fill-opacity:1;stroke-width:3.41902542"
         d="m 1601.7534,462.49196 q 2.0597,0 4.3482,1.14427 2.2886,0.91542 3.8906,2.5174 1.602,1.37313 2.2885,2.97511 0.9154,1.37312 0.2289,2.51739 -3.8906,5.72136 -6.6368,8.23876 -2.5174,2.51739 -3.8905,2.51739 -2.7463,0 -5.4925,-0.91541 -2.5174,-0.91542 -2.5174,-4.11938 0,-1.60198 0.4577,-4.11938 0.4577,-2.51739 1.3731,-4.80594 0.9154,-2.51739 2.2886,-4.11937 1.6019,-1.83084 3.6616,-1.83084 z m 47.144,-121.75046 q 2.7462,0 5.4925,1.60198 2.9751,1.60198 5.2636,3.89053 2.5174,2.05968 4.1194,4.34823 1.602,2.05968 1.602,3.43281 0,0.22885 -3.6617,7.55219 -3.4328,7.09448 -8.9253,17.62178 -5.4925,10.52729 -11.9004,22.65657 -6.4079,12.12927 -12.1293,22.65657 -5.4925,10.29844 -9.6119,17.16407 -3.8905,6.86562 -4.3482,6.86562 -2.7462,0 -4.3482,-2.28854 -1.602,-2.5174 -1.602,-5.03479 0,-2.5174 2.7463,-10.98501 2.7462,-8.4676 6.8656,-19.45261 4.3482,-11.21386 9.1541,-23.57198 5.0348,-12.35813 9.3831,-22.65658 4.5771,-10.29844 7.781,-16.93521 3.204,-6.86563 4.1194,-6.86563 z" />
    </g>
  </g>
</svg>
